<?xml version="1.0" encoding="utf-8"?>
<!-- Generator: Adobe Illustrator 22.1.0, SVG Export Plug-In . SVG Version: 6.00 Build 0)  -->
<svg version="1.1" id="Слой_1" xmlns="http://www.w3.org/2000/svg" xmlns:xlink="http://www.w3.org/1999/xlink" x="0px" y="0px"
	 viewBox="0 0 32 32" style="enable-background:new 0 0 32 32;" xml:space="preserve">
<style type="text/css">
	.st0{fill:#63BAD5;}
	.st1{fill:#FDFFFF;}
</style>
<rect class="st0" width="32" height="32"/>
<g>
	<path class="st1" d="M7.2,8.9h5.3L16,18l3.5-9.1h5.2v0.7c-0.9,0-1.4,0.2-1.4,1.2v9.6c0,1,0.4,1.3,1.4,1.3v0.7h-6.1v-0.7
		c1.1,0,1.4-0.4,1.4-1.5v-9.9h0l-4.7,12.1h-1L9.9,10.3h0v9.8c0,1.1,0.3,1.6,1.4,1.6v0.7H7.2v-0.7c0.9,0,1.4-0.5,1.4-1.4v-9.4
		c0-1.1-0.5-1.3-1.4-1.3V8.9z"/>
</g>
</svg>
