<svg height="512" viewBox="0 0 60 60" width="512" xmlns="http://www.w3.org/2000/svg"><g id="Page-1" fill="none" fill-rule="evenodd"><g id="034---Scissors-Cutting-Paper" fill="rgb(0,0,0)" fill-rule="nonzero"><path id="Shape" d="m19.656 40.537c-3.5760019-1.4877911-7.6810187.205021-9.1688363 3.7810119-1.48781758 3.5759908.2049642 7.6810202 3.780944 9.1688643 3.5759799 1.487844 7.6810218-.2049074 9.1688923-3.7808762 1.4837245-3.5760492-.2078823-7.6782294-3.781-9.169zm1.934 8.4c-.9210165 2.2070888-3.2728365 3.4562374-5.617204 2.9835286-2.3443674-.4727087-4.0283568-2.5356216-4.0221239-4.9271637.0062328-2.391542 1.700952-4.4456493 4.0477515-4.9061319 2.3467995-.4604827 4.6920766.8009075 5.6015764 3.012767.5096941 1.2292641.5060929 2.6114087-.01 3.838z"/><path id="Shape" d="m57 0h-54c-1.65685425 0-3 1.34314575-3 3v24c0 1.6568542 1.34314575 3 3 3h16.834l2.083 5.005c-.4440626-.187429-.8980789-.3503407-1.36-.488-6.8038574-1.9912982-13.94864018 1.8357664-16.06103355 8.6030064-2.11239336 6.7672401 1.5865659 13.9791778 8.31503355 16.2119936 1.29905.4419249 2.661838.6675923 4.034.668 5.282038-.0535815 10.0373612-3.2120409 12.135-8.06 2.0964938 4.8498201 6.8536828 8.0089981 12.137 8.06 1.372278.0000184 2.7353033-.224619 4.035-.665 4.5161158-1.5015696 7.85073-5.3509019 8.6931223-10.0349588.8423922-4.6840568-.9421063-9.4540229-4.6520715-12.4349911s-8.7523047-3.6963869-13.1450508-1.8650501l2.082-5h18.87c1.6568542 0 3-1.3431458 3-3v-24c0-1.65685425-1.3431458-3-3-3zm-22.973 34.649c-1.1026497-1.9435646-3.3805445-2.8949496-5.538-2.313l10.971-26.336c2.9893717 1.78081205 4.2149874 5.4883419 2.876 8.7zm-8.908.575-.009.015-.464 1.117-2.646-6.356h5.293zm-11.666 22.214c-5.11630882-1.7239491-8.22521426-6.9061584-7.33803613-12.231713s5.50816163-9.2200504 10.90703613-9.192287c1.0077433-.0015061 2.010536.1409322 2.978.423 1.6094002.4585754 3.0909825 1.2830457 4.329 2.409.2406065.2206329.5737594.3099339.8924602.2392222.3187009-.0707118.5828235-.2925333.7075398-.5942222l.649-1.558.393-.944c.6700614-1.4799925 2.3964708-2.1576845 3.8943908-1.5287206 1.4979201.6289639 2.2229965 2.336014 1.6356092 3.8507206l-5.254 12.615c-2.1808711 5.4502172-8.1999368 8.2917538-13.794 6.512zm24.507-21c5.7239133-1.6422625 11.7153757 1.5685369 13.5177068 7.244082 1.8023312 5.6755451-1.238974 11.7547982-6.8616756 13.7157767s-11.7849516-.9084343-13.9030312-6.4738587l-.649-1.563 3.9-9.36.87-2.089c.9578864-.6526284 2.012902-1.1497615 3.126-1.473zm20.04-9.438c0 .5522847-.4477153 1-1 1h-18.036l5.219-12.529c1.7206803-4.1314178.1442516-8.89947569-3.7-11.191-.494127-.29450407-1.0917108-.36017262-1.638-.18-.5576405.18106198-1.0093013.59514511-1.238 1.135l-9.48 22.765h-25.127c-.55228475 0-1-.4477153-1-1v-24c0-.55228475.44771525-1 1-1h25v1c0 .55228475.4477153 1 1 1s1-.44771525 1-1v-1h27c.5522847 0 1 .44771525 1 1z"/><path id="Shape" d="m29.727 37.161c-.5098487-.2120688-1.0950855.0292533-1.307272.5390531-.2121865.5097997.0290005 1.0950922.5387513 1.3073964.5097507.2123042 1.0950989-.0287478 1.3075207-.5384495.1020714-.2449181.1026212-.5203616.0015283-.7656852-.1010928-.2453236-.2955396-.4404131-.5405283-.5423148z"/><path id="Shape" d="m38.323 53.5c3.0931634 1.276832 6.6575265.1907656 8.5131271-2.5939617 1.8556005-2.7847273 1.4855839-6.4924642-.8837479-8.855561-2.3693318-2.3630967-6.0780309-2.723342-8.8578589-.86041-2.7798281 1.862932-3.8564985 5.4301446-2.5715203 8.5199327.7139409 1.7172751 2.0808495 3.0805867 3.8 3.79zm-1.962-8.4c.9112563-2.2117373 3.2579992-3.4717403 5.6050023-3.0094133 2.3470032.462327 4.0405621 2.5182131 4.0449261 4.9103149s-1.6816824 4.4541535-4.026983 4.9250409c-2.3453007.4708873-4.6966253-.7805448-5.6159454-2.9889425-.5146308-1.2267469-.5171514-2.6083836-.007-3.837z"/><path id="Shape" d="m29 6c-.5522847 0-1 .44771525-1 1v1c0 .55228475.4477153 1 1 1s1-.44771525 1-1v-1c0-.55228475-.4477153-1-1-1z"/><path id="Shape" d="m29 11c-.5522847 0-1 .4477153-1 1v1c0 .5522847.4477153 1 1 1s1-.4477153 1-1v-1c0-.5522847-.4477153-1-1-1z"/><path id="Shape" d="m29 16c-.5522847 0-1 .4477153-1 1v1c0 .5522847.4477153 1 1 1s1-.4477153 1-1v-1c0-.5522847-.4477153-1-1-1z"/></g></g></svg>