<svg id="Capa_1" xmlns="http://www.w3.org/2000/svg" viewBox="0 0 508 508">
<path d="M417.9,114.7V0H90.1v114.7H0v278.6h90.1V508h327.7V393.3H508V114.7H417.9z M106.5,16.4h295v98.3h-24.6V41H131.1v73.7 h-24.6V16.4z M360.5,57.4v57.3h-213V57.4H360.5z M401.5,491.6L401.5,491.6h-295V295h24.6v147.5h245.8V295h24.6V491.6z M311.6,333.3l48.9,62.8v30H245.3L311.6,333.3z M225.2,426h-27.82l48.22-60.3l11.6,15.5L225.2,426z M311.1,305.8l-43.8,61.4 L246,338.9L176.3,426h-28.8V295h213v74.4L311.1,305.8z M417.9,376.9v-98.3h-41H131.1h-41v98.3H16.4V131.1h73.7h327.7h73.7v245.8 H417.9z"/>
<rect x="442.5" y="163.9" width="16.4" height="16.4"/>
<rect x="409.7" y="163.9" width="16.4" height="16.4"/>
<rect x="376.9" y="163.9" width="16.4" height="16.4"/>
<path d="M192.5,311.3c-15.8,0-28.7,12.9-28.7,28.7c0,15.8,12.9,28.7,28.7,28.7s28.7-12.9,28.7-28.7 C221.2,324.2,208.3,311.3,192.5,311.3z M192.5,352.3c-6.8,0-12.3-5.5-12.3-12.3s5.6-12.3,12.3-12.3c6.8,0,12.3,5.5,12.3,12.3 S199.3,352.3,192.5,352.3z"/>
<rect x="172.1" y="81.9" width="163.9" height="16.4"/>
</svg>
