<svg version="1.1" id="Capa_1" xmlns="http://www.w3.org/2000/svg" xmlns:xlink="http://www.w3.org/1999/xlink" x="0px" y="0px" viewBox="0 0 512 512" style="enable-background:new 0 0 512 512;" xml:space="preserve"><path d="M406.2,156.4l10.5-12.2l10.2,8.8c1.4,1.2,3.1,1.8,4.9,1.8c0.2,0,0.4,0,0.6,0c2-0.2,3.9-1.1,5.2-2.6l16.2-18.9 c2.7-3.2,2.4-7.9-0.8-10.6l-55.8-47.9c-1.5-1.3-3.5-2-5.5-1.8c-2,0.1-3.9,1.1-5.2,2.6l-16.2,18.9c-2.7,3.2-2.4,7.9,0.8,10.6 l10.2,8.8l-11.3,13.1c-23.1-14.7-49.4-24.9-77.5-29.3V74.9h26c12.1,0,22-9.9,22-22V35.3c0-12.1-9.9-22-22-22H205.1 c-12.1,0-22,9.9-22,22v17.6c0,12.1,9.9,22,22,22h26v22.8c-28.7,4.4-55.5,14.9-78.9,30.1l-12-14l10.2-8.8c1.5-1.3,2.5-3.2,2.6-5.2 c0.1-2-0.5-4-1.8-5.5L135,75.6c-2.7-3.2-7.5-3.5-10.6-0.8l-55.7,47.9c-1.5,1.3-2.5,3.2-2.6,5.2c-0.1,2,0.5,4,1.8,5.5L84,152.2 c1.5,1.7,3.6,2.6,5.7,2.6c1.7,0,3.5-0.6,4.9-1.8l10.2-8.8l11.5,13.3c-9.9,10.3-18.7,21.7-26.3,34c-0.3,0-0.5,0-0.8,0l-7.6,15.1 c-4,7.9-7.4,16.1-10.4,24.5l-4.6,15.1c-2.7,10.5-4.6,21.3-5.6,32.3l-0.8,15.1c0,1.1,0,2.3,0,3.4c0,9.8,0.7,19.5,2.1,28.9l2.8,15.1 c1.9,8.4,4.3,16.6,7.1,24.5l6.2,15.1c31.8,69.6,102.1,118,183.5,118c29.7,0,62.2-9.8,66-11c42.9-13.3,76.5-47.9,76.5-47.9 s-10.7-10.7-10.7-10.7l0,0c0,0-34.6,30.1-70.4,44.2c0,0-27,10.3-61.4,10.3C159,483.6,75.3,399.9,75.3,297 c0-102.9,83.7-186.6,186.6-186.6c49.8,0,95.1,19.6,128.6,51.5c0.1,0.1,0.1,0.1,0.2,0.2c35.6,34,57.8,81.9,57.8,134.8 c0,49.9-19.4,96.8-54.8,132c-3,2.9-3,7.7,0,10.7c2.9,3,7.7,3,10.7,0c38.2-38.1,59.2-88.8,59.2-142.7c0-24.2-4.4-43.3-7.3-53.8 C444.5,201.2,421.4,172.2,406.2,156.4z M393.1,91.1l44.3,38.1l-6.4,7.4l-44.3-38.1L393.1,91.1z M392.8,123.7l12.4,10.7l-10,11.6 c-4.1-3.6-8.3-7.1-12.7-10.4L392.8,123.7z M228.4,59.8V28.4h12.2v31.4H228.4z M255.7,28.4h12.2v31.4h-12.2V28.4z M283,59.8V28.4 h12.2v31.4H283z M325.5,35.3v17.6c0,3.8-3.1,6.9-6.9,6.9h-8.2V28.4h8.2C322.4,28.4,325.5,31.5,325.5,35.3z M198.2,52.9V35.3 c0-3.8,3.1-6.9,6.9-6.9h8.2v31.4h-8.2C201.3,59.8,198.2,56.7,198.2,52.9L198.2,52.9z M90.5,136.6l-6.4-7.4l44.3-38.1l6.4,7.4 l-10.2,8.8c0,0,0,0,0,0l-23.9,20.5c0,0,0,0,0,0L90.5,136.6z M116.5,134.2l12.2-10.5l11.1,12.9c-4.4,3.3-8.6,6.8-12.6,10.5 l-10.9-12.7L116.5,134.2z M246.2,96V74.9h31.2V96c-5.2-0.4-10.4-0.6-15.6-0.6S251.4,95.6,246.2,96L246.2,96z"/><path d="M229.8,143.5c-10.6,1.5-25.3,4.9-41.3,12.7c-44.7,22-77.4,69.5-84,120.2c-11.3,86.8,50.1,166.6,136.9,177.9 c6.9,0.9,13.8,1.3,20.6,1.3c78.5,0,146.9-58.4,157.3-138.2c5.5-42-5.7-83.7-31.6-117.3c-25.9-33.6-63.2-55.1-105.3-60.6 c-8.6-1.1-21.6-2.1-37.2-0.5c-34.4,3.5-56.8,17.1-56.7,17.1c0,0.1,17.2-10.2,27.7-3.6c3,1.9,4.9,6.5,9.2,5.4 c9.5-2.5,19.2-4,28.9-4.5v19.8c0,4.2,3.4,7.5,7.5,7.5s7.5-3.4,7.5-7.5v-19.8c3.7,0.2,7.3,0.5,11,1c29.4,3.8,56.3,16.3,77.8,35.9 l-13.7,13.7c-2.9,2.9-2.9,7.7,0,10.7c1.5,1.5,3.4,2.2,5.3,2.2c1.9,0,3.9-0.7,5.3-2.2l13.6-13.6c2.4,2.7,4.7,5.4,6.9,8.3 c18.1,23.5,28.2,51.3,29.6,80.2h-18.7c-4.2,0-7.5,3.4-7.5,7.5c0,4.2,3.4,7.5,7.5,7.5h18.7c-0.2,3.6-0.5,7.2-1,10.8 c-3.9,29.8-16.7,56.4-35.5,77.2l-12.9-12.9c-2.9-2.9-7.7-2.9-10.7,0s-2.9,7.7,0,10.7l12.9,12.9c-23.8,21.5-54.6,34.9-87.8,36.9 v-18.5c0-4.2-3.4-7.5-7.5-7.5s-7.5,3.4-7.5,7.5v18.5c-4-0.2-7.9-0.5-12-1c-29.5-3.8-55.8-16.5-76.5-34.9l13.4-13.4 c2.9-2.9,2.9-7.7,0-10.7s-7.7-2.9-10.7,0L156,394c-21.8-23.8-35.5-54.8-37.5-88.3H138c4.2,0,7.5-3.4,7.5-7.5c0-4.2-3.4-7.5-7.5-7.5 h-19.7c0.2-4,0.5-8.1,1.1-12.1c3.8-29,16.3-55.8,35.3-77.1l14.1,14.1c1.5,1.5,3.4,2.2,5.3,2.2s3.9-0.7,5.3-2.2 c2.9-2.9,2.9-7.7,0-10.7l-14.1-14.1c7.1-6.4,17-14.2,30.1-21c11.2-5.9,21.6-9.4,30-11.6C226.8,153.2,228.3,148.4,229.8,143.5z"/><path d="M261.8,227.8c-4.2,0-7.5,3.4-7.5,7.5v44.8c-6.4,2.9-10.9,9.4-10.9,16.9c0,10.2,8.3,18.5,18.5,18.5c2.8,0,5.4-0.6,7.8-1.8 l50.4,50.4c1.5,1.5,3.4,2.2,5.3,2.2c1.9,0,3.9-0.7,5.3-2.2c2.9-2.9,2.9-7.7,0-10.7l-51.1-51.1c0.5-1.7,0.8-3.4,0.8-5.3 c0-7.5-4.5-14-10.9-16.9v-44.8C269.4,231.2,266,227.8,261.8,227.8L261.8,227.8z M258.5,297c0-1.9,1.5-3.4,3.4-3.4 c1.9,0,3.4,1.5,3.4,3.4c0,1.9-1.5,3.4-3.4,3.4C260,300.4,258.5,298.9,258.5,297z"/>
<path d="M400.5,437.8"/>
</svg>
